# xmcd
#
# Track frame offsets: 
#        150
#        11589
#        20324
#        33471
#        51615
#        62281
#        75350
#        86688
#        96796
#        106534
#        117852
#        128449
#        139467
#        152385
#        163219
#        173102
#
# Disc length: 2437 seconds
#
# Revision: 4
# Processed by: cddbd v1.4PL0 Copyright (c) Steve Scherf et al.
# Submitted via: ExactAudioCopy v0.95a3
#
DISCID=bb098310
DTITLE=John Lee Hooker - Most Famous Hits: Boom, Boom
DYEAR=1999
DGENRE=Blues
TTITLE0=Boom, Boom
TTITLE1=Hobo Blues
TTITLE2=I Want To Hug You
TTITLE3=House Rent Blues
TTITLE4=Want Ad Blues
TTITLE5=I'm So Exited
TTITLE6=Hard Headed Woman
TTITLE7=I Wanna Talk
TTITLE8=Onions
TTITLE9=What Do You Say
TTITLE10=Keep Your Hands To Yourself
TTITLE11=Send Me Your Pillow
TTITLE12=She Shot Me Down
TTITLE13=I Want To Shout
TTITLE14=I'm Leaving (Baby)
TTITLE15=Dusty Road
EXTD=Most Famous Hits\nJohn Lee Hooker\nThe Album\nmcps\n65032
EXTT0=
EXTT1=
EXTT2=
EXTT3=
EXTT4=
EXTT5=
EXTT6=
EXTT7=
EXTT8=
EXTT9=
EXTT10=
EXTT11=
EXTT12=
EXTT13=
EXTT14=
EXTT15=
PLAYORDER=
